<svg width="26" height="26" viewBox="0 0 26 26" fill="none" xmlns="http://www.w3.org/2000/svg">
<g filter="url(#filter0_d_2_86)">
<path d="M20.8261 7.04348H19.361C19.2382 6.64239 19.0773 6.255 18.8821 5.886L19.9171 4.851C20.1386 4.62952 20.2607 4.33448 20.2607 4.02026C20.2607 3.70643 20.1386 3.41139 19.9171 3.18991L18.8097 2.08252C18.3671 1.63996 17.5923 1.63878 17.149 2.08252L16.114 3.11752C15.7454 2.92226 15.3576 2.76183 14.9565 2.63857V1.17391C14.9565 0.526696 14.4298 0 13.7826 0H12.2174C11.5702 0 11.0435 0.526696 11.0435 1.17391V2.63896C10.6424 2.76222 10.255 2.92265 9.886 3.11791L8.85061 2.08291C8.39278 1.62509 7.64774 1.62509 7.18991 2.08291L6.08213 3.1903C5.6247 3.64813 5.6247 4.39317 6.08213 4.851L7.11713 5.88639C6.92187 6.255 6.76143 6.64278 6.63817 7.04387H5.17391C4.5267 7.04387 4 7.57056 4 8.21778V9.783C4 10.4298 4.5267 10.9565 5.17391 10.9565H6.63896C6.76222 11.3576 6.92265 11.745 7.11791 12.114L6.08291 13.1494C5.62509 13.6072 5.62509 14.3523 6.08291 14.8101L7.1903 15.9179C7.64813 16.3753 8.39317 16.3753 8.851 15.9179L9.88639 14.8829C10.255 15.0781 10.6428 15.2386 11.0439 15.3618V16.8261C11.0439 17.4733 11.5706 18 12.2178 18H13.783C14.4302 18 14.9569 17.4733 14.9569 16.8261V15.361C15.358 15.2378 15.7458 15.0773 16.1144 14.8821L17.1494 15.9175C17.5931 16.3608 18.3679 16.36 18.8101 15.9175L19.9175 14.8101C20.139 14.5886 20.261 14.2936 20.261 13.9797C20.261 13.6655 20.139 13.3709 19.9175 13.1494L18.8825 12.114C19.0777 11.7454 19.2382 11.3576 19.3614 10.9565H20.8261C21.4733 10.9565 22 10.4298 22 9.78261V8.21739C22 7.57017 21.4733 7.04348 20.8261 7.04348ZM21.2174 9.78261C21.2174 9.99822 21.0421 10.1739 20.8261 10.1739H19.0652C18.8868 10.1739 18.731 10.2948 18.6864 10.4674C18.5479 11.0015 18.337 11.5114 18.0588 11.9825C17.9684 12.1363 17.993 12.332 18.119 12.458L19.3634 13.7027C19.437 13.7763 19.4777 13.8745 19.4777 13.9797C19.4777 14.085 19.437 14.1832 19.3634 14.2568L18.256 15.3642C18.1089 15.5113 17.8494 15.5113 17.7019 15.3642L16.4576 14.1198C16.3316 13.9934 16.1359 13.9692 15.9817 14.0596C15.5114 14.3374 15.0015 14.5487 14.467 14.6868C14.2948 14.731 14.1739 14.8868 14.1739 15.0652V16.8261C14.1739 17.0417 13.9986 17.2174 13.7826 17.2174H12.2174C12.0018 17.2174 11.8261 17.0417 11.8261 16.8261V15.0652C11.8261 14.8868 11.7052 14.731 11.5326 14.6864C10.9985 14.5483 10.4886 14.3374 10.0175 14.0592C9.95565 14.0224 9.88717 14.0048 9.8187 14.0048C9.71735 14.0048 9.61717 14.0439 9.54165 14.1194L8.2973 15.3638C8.1443 15.5164 7.89622 15.5164 7.74322 15.3638L6.63583 14.2564C6.48283 14.1034 6.48283 13.8549 6.63583 13.7023L7.88017 12.458C8.00657 12.3316 8.03122 12.1359 7.94043 11.9825C7.66261 11.5114 7.4513 11.0019 7.31317 10.4674C7.26896 10.2948 7.11322 10.1739 6.93478 10.1739H5.17391C4.9583 10.1739 4.78261 9.99822 4.78261 9.78261V8.21739C4.78261 8.00178 4.9583 7.82609 5.17391 7.82609H6.93478C7.11322 7.82609 7.26896 7.70517 7.31357 7.53261C7.4517 6.99848 7.66261 6.48861 7.94083 6.01748C8.03161 5.8637 8.00696 5.66804 7.88057 5.54204L6.63622 4.2977C6.48361 4.14509 6.48361 3.89661 6.63622 3.74361L7.74361 2.63622C7.89661 2.48322 8.1447 2.48361 8.2977 2.63622L9.54204 3.88057C9.66843 4.00696 9.8637 4.032 10.0175 3.94083C10.4886 3.663 10.9981 3.4517 11.5326 3.31357C11.7052 3.26896 11.8261 3.11322 11.8261 2.93478V1.17391C11.8261 0.958304 12.0018 0.782609 12.2174 0.782609H13.7826C13.9986 0.782609 14.1739 0.958304 14.1739 1.17391V2.93478C14.1739 3.11322 14.2948 3.26896 14.4674 3.31357C15.0019 3.4517 15.5118 3.663 15.9821 3.94083C16.1363 4.03161 16.332 4.00735 16.458 3.88057L17.7023 2.63622C17.8498 2.4883 18.1093 2.4887 18.2564 2.63622L19.3638 3.74361C19.4373 3.81717 19.478 3.91578 19.478 4.02065C19.478 4.12552 19.4373 4.22413 19.3638 4.2977L18.1194 5.54204C17.9934 5.66843 17.9684 5.86409 18.0592 6.01748C18.3374 6.48861 18.5483 6.99809 18.6868 7.53261C18.731 7.70517 18.8868 7.82609 19.0652 7.82609H20.8261C21.0421 7.82609 21.2174 8.00178 21.2174 8.21739V9.78261Z" fill="#919191"/>
<path d="M13 5.47826C11.0584 5.47826 9.47827 7.05835 9.47827 9C9.47827 10.9417 11.0584 12.5217 13 12.5217C14.9421 12.5217 16.5217 10.9417 16.5217 9C16.5217 7.05835 14.9421 5.47826 13 5.47826ZM13 11.7391C11.4896 11.7391 10.2609 10.5104 10.2609 9C10.2609 7.48957 11.4896 6.26087 13 6.26087C14.5101 6.26087 15.7391 7.48957 15.7391 9C15.7391 10.5104 14.5101 11.7391 13 11.7391Z" fill="#919191"/>
</g>
<defs>
<filter id="filter0_d_2_86" x="0" y="0" width="26" height="26" filterUnits="userSpaceOnUse" color-interpolation-filters="sRGB">
<feFlood flood-opacity="0" result="BackgroundImageFix"/>
<feColorMatrix in="SourceAlpha" type="matrix" values="0 0 0 0 0 0 0 0 0 0 0 0 0 0 0 0 0 0 127 0" result="hardAlpha"/>
<feOffset dy="4"/>
<feGaussianBlur stdDeviation="2"/>
<feComposite in2="hardAlpha" operator="out"/>
<feColorMatrix type="matrix" values="0 0 0 0 0 0 0 0 0 0 0 0 0 0 0 0 0 0 0.25 0"/>
<feBlend mode="normal" in2="BackgroundImageFix" result="effect1_dropShadow_2_86"/>
<feBlend mode="normal" in="SourceGraphic" in2="effect1_dropShadow_2_86" result="shape"/>
</filter>
</defs>
</svg>
